<mxfile host="app.diagrams.net" agent="Mozilla/5.0 (X11; Ubuntu; Linux x86_64; rv:138.0) Gecko/20100101 Firefox/138.0" version="27.0.8">
  <diagram name="Page-1" id="fgapFqIu4u36hA8qON0q">
    <mxGraphModel dx="966" dy="1369" grid="1" gridSize="10" guides="1" tooltips="1" connect="1" arrows="1" fold="1" page="1" pageScale="1" pageWidth="850" pageHeight="1100" background="light-dark(#FFFFFF,#FAFAFA)" math="0" shadow="0">
      <root>
        <mxCell id="0" />
        <mxCell id="1" parent="0" />
        <mxCell id="-p-RQ_k6X65M72t_0980-1" value="" style="rounded=0;whiteSpace=wrap;html=1;fillColor=light-dark(#FAD7AC,#FFFFFF);strokeColor=light-dark(#B46504,#000000);sketch=1;curveFitting=1;jiggle=2;shadow=0;" vertex="1" parent="1">
          <mxGeometry x="25" y="40" width="800" height="820" as="geometry" />
        </mxCell>
        <mxCell id="-p-RQ_k6X65M72t_0980-2" value="" style="whiteSpace=wrap;html=1;aspect=fixed;fillColor=light-dark(#FFFFFF,#FCFEFF);strokeColor=light-dark(#000000,#000000);sketch=1;curveFitting=1;jiggle=2;imageAspect=0;" vertex="1" parent="1">
          <mxGeometry x="40" y="70" width="370" height="370" as="geometry" />
        </mxCell>
        <mxCell id="-p-RQ_k6X65M72t_0980-4" value="" style="whiteSpace=wrap;html=1;aspect=fixed;fillColor=light-dark(#FFFFFF,#FCFEFF);strokeColor=light-dark(#000000,#000000);sketch=1;curveFitting=1;jiggle=2;imageAspect=0;" vertex="1" parent="1">
          <mxGeometry x="440" y="70" width="370" height="370" as="geometry" />
        </mxCell>
        <mxCell id="-p-RQ_k6X65M72t_0980-5" value="" style="whiteSpace=wrap;html=1;aspect=fixed;fillColor=light-dark(#FFFFFF,#FCFEFF);strokeColor=light-dark(#000000,#000000);sketch=1;curveFitting=1;jiggle=2;imageAspect=0;" vertex="1" parent="1">
          <mxGeometry x="40" y="470" width="370" height="370" as="geometry" />
        </mxCell>
        <mxCell id="-p-RQ_k6X65M72t_0980-6" value="" style="whiteSpace=wrap;html=1;aspect=fixed;fillColor=light-dark(#FFFFFF,#FCFEFF);strokeColor=light-dark(#000000,#000000);sketch=1;curveFitting=1;jiggle=2;imageAspect=0;" vertex="1" parent="1">
          <mxGeometry x="440" y="470" width="370" height="370" as="geometry" />
        </mxCell>
      </root>
    </mxGraphModel>
  </diagram>
</mxfile>
